<svg width="149" height="50" viewBox="0 0 149 50" fill="none" xmlns="http://www.w3.org/2000/svg">
<rect width="5.66139" height="28.0206" rx="2.8307" transform="matrix(0.630916 0.775851 -0.763172 0.646195 21.3848 0)" fill="#D9D9D9"/>
<rect width="5.66139" height="28.0206" rx="2.8307" transform="matrix(0.630916 0.775851 -0.763172 0.646195 21.3848 0)" fill="white"/>
<rect width="5.87317" height="20.883" rx="2.93658" transform="matrix(-0.777087 0.629393 -0.613984 -0.789319 17.4102 30.8564)" fill="#D9D9D9"/>
<rect width="5.87317" height="20.883" rx="2.93658" transform="matrix(-0.777087 0.629393 -0.613984 -0.789319 17.4102 30.8564)" fill="white"/>
<rect width="5.66139" height="28.0206" rx="2.8307" transform="matrix(-0.630916 -0.775851 0.763172 -0.646195 9.82471 50)" fill="white"/>
<rect width="5.66139" height="28.0206" rx="2.8307" transform="matrix(-0.630916 -0.775851 0.763172 -0.646195 9.82471 50)" fill="white"/>
<rect width="5.87317" height="20.883" rx="2.93658" transform="matrix(0.777087 -0.629393 0.613984 0.789319 13.7993 19.1436)" fill="white"/>
<rect width="5.87317" height="20.883" rx="2.93658" transform="matrix(0.777087 -0.629393 0.613984 0.789319 13.7993 19.1436)" fill="white"/>
<path d="M40.3084 22V8.10415H43.0876V19.6715H48.7398V22H40.3084ZM54.5726 22.2629C51.9249 22.2629 49.5213 20.2349 49.5213 16.7609C49.5213 13.2681 51.9249 11.2401 54.5726 11.2401C57.2016 11.2401 59.6052 13.2681 59.6052 16.7609C59.6052 20.2349 57.2016 22.2629 54.5726 22.2629ZM54.5726 20.0283C55.9998 20.0283 56.7885 18.7326 56.7885 16.7609C56.7885 14.7704 55.9998 13.4935 54.5726 13.4935C53.1267 13.4935 52.338 14.7704 52.338 16.7609C52.338 18.7326 53.1267 20.0283 54.5726 20.0283ZM65.2382 26.5631C62.7783 26.5631 60.8629 25.7181 60.8629 23.8778C60.8629 22.9952 61.3887 22.2253 62.3652 21.6995V21.6057C61.8206 21.2489 61.4075 20.6855 61.4075 19.8217C61.4075 19.033 61.9333 18.3195 62.5905 17.8688V17.7937C61.8581 17.2679 61.1633 16.2727 61.1633 15.0333C61.1633 12.5546 63.1914 11.2401 65.4072 11.2401C66.0081 11.2401 66.5715 11.334 67.0034 11.503H70.7966V13.531H68.9938C69.2755 13.8878 69.4821 14.47 69.4821 15.1084C69.4821 17.4932 67.6794 18.6763 65.4072 18.6763C64.9941 18.6763 64.5246 18.6012 64.0552 18.4321C63.7735 18.695 63.6045 18.9204 63.6045 19.3523C63.6045 19.8968 64.0364 20.2161 65.257 20.2161H67.0597C69.5947 20.2161 70.9843 20.986 70.9843 22.845C70.9843 24.967 68.7497 26.5631 65.2382 26.5631ZM65.4072 16.9862C66.3273 16.9862 67.0597 16.2727 67.0597 15.0333C67.0597 13.7939 66.3461 13.1179 65.4072 13.1179C64.4871 13.1179 63.7547 13.7939 63.7547 15.0333C63.7547 16.2727 64.4871 16.9862 65.4072 16.9862ZM65.6701 24.8167C67.2475 24.8167 68.3178 24.1219 68.3178 23.3145C68.3178 22.5633 67.6982 22.3568 66.5715 22.3568H65.2945C64.6561 22.3568 64.2242 22.3192 63.8486 22.2066C63.3604 22.6009 63.1538 23.014 63.1538 23.4459C63.1538 24.3285 64.1303 24.8167 65.6701 24.8167ZM74.4825 22.2629C72.6047 22.2629 71.3841 20.9484 71.3841 19.1457C71.3841 16.9111 73.2056 15.7281 77.4307 15.2586C77.3743 14.2258 76.9424 13.4559 75.6467 13.4559C74.6703 13.4559 73.7126 13.869 72.7549 14.4512L71.7597 12.6109C72.999 11.8598 74.4825 11.2401 76.1538 11.2401C78.8203 11.2401 80.1911 12.8175 80.1911 15.8783V22H77.9377L77.7311 20.8921H77.656C76.7359 21.6808 75.6843 22.2629 74.4825 22.2629ZM75.3839 20.1034C76.1725 20.1034 76.7547 19.7466 77.4307 19.0894V16.9674C74.8581 17.2867 74.013 17.9815 74.013 18.9392C74.013 19.7466 74.5764 20.1034 75.3839 20.1034ZM82.6289 22V11.503H84.8635L85.0888 12.8926H85.1451C86.0465 11.9912 87.1356 11.2401 88.5628 11.2401C90.8161 11.2401 91.8114 12.8175 91.8114 15.4464V22H89.051V15.8032C89.051 14.1507 88.5815 13.6062 87.5675 13.6062C86.7037 13.6062 86.1592 14.0193 85.3892 14.7704V22H82.6289ZM102.537 22.2629C100.659 22.2629 98.8192 21.5493 97.4671 20.2536L99.0633 18.3383C100.04 19.2584 101.373 19.8593 102.594 19.8593C104.039 19.8593 104.791 19.2396 104.791 18.2819C104.791 17.2491 103.946 16.9111 102.706 16.3853L100.847 15.5966C99.4576 15.0333 98.0305 13.8878 98.0305 11.8786C98.0305 9.6064 100.04 7.86003 102.838 7.86003C104.453 7.86003 106.068 8.49849 107.194 9.64396L105.805 11.3903C104.903 10.658 103.983 10.2449 102.838 10.2449C101.617 10.2449 100.847 10.7894 100.847 11.6908C100.847 12.686 101.842 13.0616 103.025 13.531L104.847 14.2822C106.518 14.977 107.626 16.0661 107.626 18.0566C107.626 20.3287 105.73 22.2629 102.537 22.2629ZM112.657 22.2629C110.159 22.2629 109.201 20.6855 109.201 18.3383V13.6625H107.737V11.6157L109.37 11.503L109.671 8.64872H111.962V11.503H114.572V13.6625H111.962V18.3383C111.962 19.5401 112.469 20.1034 113.389 20.1034C113.746 20.1034 114.14 19.972 114.441 19.8593L114.891 21.8686C114.328 22.0563 113.596 22.2629 112.657 22.2629ZM120.29 22.2629C117.642 22.2629 115.238 20.2349 115.238 16.7609C115.238 13.2681 117.642 11.2401 120.29 11.2401C122.919 11.2401 125.322 13.2681 125.322 16.7609C125.322 20.2349 122.919 22.2629 120.29 22.2629ZM120.29 20.0283C121.717 20.0283 122.505 18.7326 122.505 16.7609C122.505 14.7704 121.717 13.4935 120.29 13.4935C118.844 13.4935 118.055 14.7704 118.055 16.7609C118.055 18.7326 118.844 20.0283 120.29 20.0283ZM127.275 22V11.503H129.509L129.735 12.8926H129.791C130.692 11.9912 131.781 11.2401 133.209 11.2401C135.462 11.2401 136.457 12.8175 136.457 15.4464V22H133.697V15.8032C133.697 14.1507 133.227 13.6062 132.213 13.6062C131.35 13.6062 130.805 14.0193 130.035 14.7704V22H127.275ZM143.511 22.2629C140.563 22.2629 138.272 20.2349 138.272 16.7609C138.272 13.3433 140.675 11.2401 143.154 11.2401C146.065 11.2401 147.548 13.3433 147.548 16.2539C147.548 16.7797 147.492 17.2679 147.435 17.5308H140.938C141.182 19.2584 142.309 20.141 143.868 20.141C144.713 20.141 145.464 19.8781 146.234 19.4086L147.154 21.1174C146.121 21.831 144.806 22.2629 143.511 22.2629ZM140.901 15.6905H145.201C145.201 14.2634 144.562 13.362 143.21 13.362C142.102 13.362 141.126 14.1507 140.901 15.6905Z" fill="white"/>
<path d="M42.1424 41.8528C40.4774 41.8528 39.839 40.8012 39.839 39.2364V36.1192H38.8625V34.7547L39.9516 34.6796L40.1519 32.7767H41.6792V34.6796H43.4193V36.1192H41.6792V39.2364C41.6792 40.0376 42.0172 40.4132 42.6307 40.4132C42.8685 40.4132 43.1314 40.3255 43.3317 40.2504L43.6322 41.5899C43.2566 41.7151 42.7684 41.8528 42.1424 41.8528ZM44.6074 41.6776V31.7001H46.4476V34.2164L46.36 35.5308C46.9108 35.005 47.6119 34.5043 48.5633 34.5043C50.0655 34.5043 50.729 35.5559 50.729 37.3085V41.6776H48.8888V37.5464C48.8888 36.4447 48.5758 36.0817 47.8998 36.0817C47.3239 36.0817 46.9609 36.3571 46.4476 36.8578V41.6776H44.6074ZM55.4192 41.8528C53.4537 41.8528 51.9264 40.5008 51.9264 38.1848C51.9264 35.9064 53.5288 34.5043 55.1813 34.5043C57.1217 34.5043 58.1107 35.9064 58.1107 37.8468C58.1107 38.1973 58.0732 38.5228 58.0356 38.6981H53.7041C53.8669 39.8498 54.618 40.4382 55.657 40.4382C56.2204 40.4382 56.7211 40.2629 57.2344 39.95L57.8478 41.0892C57.1593 41.5649 56.283 41.8528 55.4192 41.8528ZM53.6791 37.4712H56.5459C56.5459 36.5198 56.1202 35.9189 55.2189 35.9189C54.4803 35.9189 53.8293 36.4447 53.6791 37.4712ZM65.4795 41.8528C64.8536 41.8528 64.1775 41.5273 63.6142 40.9389H63.5641L63.4139 41.6776H61.9742V31.7001H63.8145V34.2164L63.7519 35.3305C64.3152 34.8423 65.0038 34.5043 65.7048 34.5043C67.4199 34.5043 68.459 35.9064 68.459 38.0596C68.459 40.4757 67.0193 41.8528 65.4795 41.8528ZM65.0789 40.338C65.9176 40.338 66.5686 39.612 66.5686 38.0972C66.5686 36.7452 66.1555 36.0065 65.179 36.0065C64.7158 36.0065 64.2777 36.2444 63.8145 36.7326V39.8248C64.2401 40.2129 64.7033 40.338 65.0789 40.338ZM72.835 41.8528C70.8695 41.8528 69.3422 40.5008 69.3422 38.1848C69.3422 35.9064 70.9446 34.5043 72.5971 34.5043C74.5375 34.5043 75.5265 35.9064 75.5265 37.8468C75.5265 38.1973 75.4889 38.5228 75.4514 38.6981H71.1199C71.2826 39.8498 72.0338 40.4382 73.0728 40.4382C73.6362 40.4382 74.1369 40.2629 74.6502 39.95L75.2636 41.0892C74.5751 41.5649 73.6988 41.8528 72.835 41.8528ZM71.0949 37.4712H73.9617C73.9617 36.5198 73.536 35.9189 72.6347 35.9189C71.8961 35.9189 71.2451 36.4447 71.0949 37.4712ZM79.1501 41.8528C77.4851 41.8528 76.8466 40.8012 76.8466 39.2364V36.1192H75.8702V34.7547L76.9593 34.6796L77.1596 32.7767H78.6869V34.6796H80.427V36.1192H78.6869V39.2364C78.6869 40.0376 79.0249 40.4132 79.6383 40.4132C79.8762 40.4132 80.1391 40.3255 80.3394 40.2504L80.6398 41.5899C80.2643 41.7151 79.776 41.8528 79.1501 41.8528ZM83.8143 41.8528C82.1493 41.8528 81.5109 40.8012 81.5109 39.2364V36.1192H80.5344V34.7547L81.6235 34.6796L81.8238 32.7767H83.3511V34.6796H85.0912V36.1192H83.3511V39.2364C83.3511 40.0376 83.6891 40.4132 84.3026 40.4132C84.5404 40.4132 84.8033 40.3255 85.0036 40.2504L85.3041 41.5899C84.9285 41.7151 84.4403 41.8528 83.8143 41.8528ZM89.0282 41.8528C87.0628 41.8528 85.5355 40.5008 85.5355 38.1848C85.5355 35.9064 87.1379 34.5043 88.7903 34.5043C90.7308 34.5043 91.7197 35.9064 91.7197 37.8468C91.7197 38.1973 91.6822 38.5228 91.6446 38.6981H87.3131C87.4759 39.8498 88.227 40.4382 89.2661 40.4382C89.8294 40.4382 90.3302 40.2629 90.8434 39.95L91.4568 41.0892C90.7683 41.5649 89.892 41.8528 89.0282 41.8528ZM87.2881 37.4712H90.1549C90.1549 36.5198 89.7293 35.9189 88.8279 35.9189C88.0893 35.9189 87.4383 36.4447 87.2881 37.4712ZM92.9973 41.6776V34.6796H94.4871L94.6373 35.9189H94.6749C95.1756 34.9925 95.9393 34.5043 96.6653 34.5043C97.0409 34.5043 97.2662 34.5544 97.4791 34.6545L97.1661 36.2319C96.9157 36.1693 96.7279 36.1192 96.4275 36.1192C95.8892 36.1192 95.2257 36.4948 94.8376 37.5088V41.6776H92.9973ZM101.949 41.6776L100.147 34.6796H101.974L102.751 38.1347C102.876 38.8233 102.963 39.4868 103.089 40.1753H103.151C103.276 39.4868 103.402 38.8107 103.577 38.1347L104.428 34.6796H106.056L106.932 38.1347C107.095 38.8233 107.232 39.4868 107.383 40.1753H107.445C107.57 39.4868 107.658 38.8233 107.796 38.1347L108.547 34.6796H110.262L108.522 41.6776H106.356L105.617 38.623C105.467 37.972 105.354 37.3335 105.217 36.5824H105.154C105.029 37.3335 104.916 37.972 104.766 38.6355L104.053 41.6776H101.949ZM114.113 41.8528C112.348 41.8528 110.745 40.5008 110.745 38.1848C110.745 35.8563 112.348 34.5043 114.113 34.5043C115.865 34.5043 117.468 35.8563 117.468 38.1848C117.468 40.5008 115.865 41.8528 114.113 41.8528ZM114.113 40.3631C115.064 40.3631 115.59 39.4993 115.59 38.1848C115.59 36.8578 115.064 36.0065 114.113 36.0065C113.149 36.0065 112.623 36.8578 112.623 38.1848C112.623 39.4993 113.149 40.3631 114.113 40.3631ZM118.769 41.6776V34.6796H120.259L120.409 35.9189H120.447C120.948 34.9925 121.711 34.5043 122.437 34.5043C122.813 34.5043 123.038 34.5544 123.251 34.6545L122.938 36.2319C122.688 36.1693 122.5 36.1192 122.2 36.1192C121.661 36.1192 120.998 36.4948 120.61 37.5088V41.6776H118.769ZM125.711 41.8528C124.422 41.8528 123.984 41.0141 123.984 39.7121V31.7001H125.824V39.7872C125.824 40.2254 126.012 40.3631 126.187 40.3631C126.25 40.3631 126.3 40.3631 126.425 40.338L126.65 41.7026C126.437 41.7777 126.15 41.8528 125.711 41.8528ZM130.148 41.8528C128.396 41.8528 127.269 40.4883 127.269 38.1848C127.269 35.8939 128.709 34.5043 130.211 34.5043C131 34.5043 131.488 34.7922 132.001 35.2554L131.926 34.1538V31.7001H133.766V41.6776H132.264L132.126 40.9515H132.089C131.576 41.4647 130.874 41.8528 130.148 41.8528ZM130.612 40.338C131.112 40.338 131.525 40.1377 131.926 39.6245V36.5448C131.513 36.1568 131.062 36.0065 130.624 36.0065C129.835 36.0065 129.159 36.7577 129.159 38.1598C129.159 39.6245 129.698 40.338 130.612 40.338Z" fill="white"/>
</svg>
